# xmcd
#
# Track frame offsets:
#	150
#	25851
#	43378
#	60288
#	80969
#	102043
#	117091
#	135202
#	161715
#	181327
#	201485
#	222218
#
# Disc length: 3212 seconds
#
# Revision: 1
# Processed by: cddbd v1.5.2PL0 Copyright (c) Steve Scherf et al.
# Submitted via: audiograbber 1.82.02
#
DISCID=a40c8a0c
DTITLE=Eric Clapton - Old Sock
DYEAR=1900
DGENRE=
TTITLE0=Eric Clapton - Further On Down The Road
TTITLE1=Eric Clapton - Angel
TTITLE2=Eric Clapton - The Folks Who Live On The Hill
TTITLE3=Eric Clapton - Gotta Get Over
TTITLE4=Eric Clapton - Till Your Well Runs Dry
TTITLE5=Eric Clapton - All Of Me
TTITLE6=Eric Clapton - Born To Lose
TTITLE7=Eric Clapton - Still Got The Blues
TTITLE8=Eric Clapton - Goodnight Irene
TTITLE9=Eric Clapton - Your One And Only Man
TTITLE10=Eric Clapton - Every Little Thing
TTITLE11=Eric Clapton - Our Love Is Here To Stay
EXTD=
EXTT0=
EXTT1=
EXTT2=
EXTT3=
EXTT4=
EXTT5=
EXTT6=
EXTT7=
EXTT8=
EXTT9=
EXTT10=
EXTT11=
PLAYORDER=
